<svg xmlns="http://www.w3.org/2000/svg" viewBox="0 0 100.71 112.82"><defs><style>.cls-1{fill:#86c3d0;}.cls-2{fill:#fff;}.cls-3{font-size:12px;fill:#1d1d1b;font-family:MyriadPro-Regular, Myriad Pro;}.cls-4{letter-spacing:-0.01em;}.cls-5{letter-spacing:0.01em;}.cls-6{letter-spacing:0em;}.cls-7{letter-spacing:-0.01em;}.cls-8{letter-spacing:0.01em;}.cls-9{letter-spacing:-0.01em;}</style></defs><g id="API"><path class="cls-1" d="M50.35,13.37a43,43,0,1,0,43.05,43A43,43,0,0,0,50.35,13.37Z"/><g id="c9FkXU.tif"><path class="cls-2" d="M74.57,60.15A14.4,14.4,0,0,1,73,59.84l-6.2-1.34-6.26-1.37-.12,0c.35-.25.72-.42,1.06-.62.88-.5,1.76-1,2.65-1.49.17-.09.15-.15,0-.23A21.87,21.87,0,0,0,59.93,53a25.67,25.67,0,0,0-3-.72c-.14,0-.17-.08-.17-.21,0-1.42,0-2.85,0-4.28,0-.17.07-.2.22-.18A37.81,37.81,0,0,1,63.28,49a30.89,30.89,0,0,1,5.3,2.17c.33.17.65.35,1,.54a.38.38,0,0,0,.44,0c1.09-.63,2.19-1.24,3.3-1.86l.25-.13c0,.58.1,1.13.16,1.69L74,54.05c.06.63.11,1.26.17,1.88s.12,1.2.18,1.8.1,1.16.16,1.74a2,2,0,0,0,.09.58Z"/><path class="cls-2" d="M48.13,74.13V37.93a.38.38,0,0,1,.24-.41l6.94-3.37.13-.06a.53.53,0,0,1,0,.3q0,20.31,0,40.63a.37.37,0,0,1-.26.41l-6.88,3.22-.18.07c0-1.43,0-2.87,0-4.3A.7.7,0,0,0,48.13,74.13Z"/><path class="cls-2" d="M48.13,74.13a.7.7,0,0,1,0,.29c0,1.43,0,2.87,0,4.3a11.09,11.09,0,0,1-1.62-.15A37,37,0,0,1,42,77.7a29.36,29.36,0,0,1-8.92-3.81,17.07,17.07,0,0,1-5.16-5,10.94,10.94,0,0,1-1.66-4.36A10.27,10.27,0,0,1,27.53,58a14.3,14.3,0,0,1,2.71-3.43,21.48,21.48,0,0,1,4.28-3.11,30.1,30.1,0,0,1,5.24-2.28,36.3,36.3,0,0,1,5.63-1.34c.41-.06.82-.11,1.22-.18.17,0,.25,0,.25.21,0,1.4,0,2.8,0,4.2,0,.18-.06.23-.23.26a21.85,21.85,0,0,0-8.54,3.35,11.42,11.42,0,0,0-3.7,4,7.35,7.35,0,0,0-.87,3.05,7.82,7.82,0,0,0,2.06,5.64A15.08,15.08,0,0,0,41,72.21a23.61,23.61,0,0,0,5.74,1.73C47.23,74,47.68,74.07,48.13,74.13Z"/></g></g><g id="HOSTING"><text class="cls-3" transform="translate(-14.63 -4.98)">OpenID <tspan class="cls-4" x="41.17" y="0">C</tspan><tspan x="48" y="0">onne</tspan><tspan class="cls-5" x="73.92" y="0">c</tspan><tspan class="cls-6" x="79.45" y="0">t - </tspan><tspan class="cls-7" x="92.19" y="0">U</tspan><tspan x="99.89" y="0">ser</tspan><tspan class="cls-8" x="114.57" y="0">I</tspan><tspan x="117.56" y="0">n</tspan><tspan class="cls-9" x="124.22" y="0">f</tspan><tspan x="127.57" y="0">o</tspan></text></g></svg>